<?xml version="1.0" standalone="no"?>
<!DOCTYPE svg PUBLIC "-//W3C//DTD SVG 20010904//EN"
 "http://www.w3.org/TR/2001/REC-SVG-20010904/DTD/svg10.dtd">
<svg version="1.0" xmlns="http://www.w3.org/2000/svg"
 width="512.000000pt" height="512.000000pt" viewBox="0 0 512.000000 512.000000"
 preserveAspectRatio="xMidYMid meet">
<metadata>
Created by potrace 1.11, written by Peter Selinger 2001-2013
</metadata>
<g transform="translate(0.000000,512.000000) scale(0.100000,-0.100000)"
fill="#000000" stroke="none">
<path d="M1925 4194 c-23 -24 -25 -35 -25 -115 l0 -89 -539 0 c-516 0 -540 -1
-562 -19 l-24 -19 -2 -544 c-3 -524 -2 -544 16 -568 l20 -25 275 -3 276 -3 2
-995 3 -996 24 -19 c23 -19 41 -19 468 -17 l444 3 19 25 c16 20 20 42 20 113
l0 87 244 0 243 0 27 25 26 24 0 421 0 420 208 1 c280 1 354 10 502 62 372
130 639 411 744 782 38 133 45 195 41 350 -4 149 -21 241 -70 371 -132 353
-438 628 -800 719 -122 30 -204 33 -873 34 l-683 1 -24 -26z"/>
</g>
</svg>
